<?xml version="1.0" encoding="UTF-8" standalone="no"?>
<svg
   xmlns:dc="http://purl.org/dc/elements/1.1/"
   xmlns:cc="http://creativecommons.org/ns#"
   xmlns:rdf="http://www.w3.org/1999/02/22-rdf-syntax-ns#"
   xmlns:svg="http://www.w3.org/2000/svg"
   xmlns="http://www.w3.org/2000/svg"
   id="svg914"
   version="1.1"
   viewBox="0 0 43.952999 43.952999"
   height="43.952999mm"
   width="43.952999mm">
  <defs
     id="defs908" />
  <metadata
     id="metadata911">
    <rdf:RDF>
      <cc:Work
         rdf:about="">
        <dc:format>image/svg+xml</dc:format>
        <dc:type
           rdf:resource="http://purl.org/dc/dcmitype/StillImage" />
        <dc:title></dc:title>
      </cc:Work>
    </rdf:RDF>
  </metadata>
  <g
     transform="translate(0,-253.047)"
     id="layer1">
    <g
       transform="translate(-0.20687082,-1.6640181)"
       id="g1517">
      <path
         id="path821"
         style="fill:#c4c6c8;fill-rule:evenodd;stroke:#1b1918;stroke-width:0.14999232;stroke-linecap:butt;stroke-linejoin:miter;stroke-dasharray:none"
         d="m 22.204715,254.77642 a 21.88038,21.889746 0 0 1 21.88038,21.88977 21.88038,21.889746 0 1 1 -21.88038,-21.88977 z" />
      <path
         id="path823"
         style="fill:#000200;fill-rule:evenodd;stroke-width:0.26458332"
         d="m 22.204715,256.48555 c 11.140249,0 20.171248,9.0352 20.171248,20.18064 0,11.14542 -9.030999,20.18062 -20.171248,20.18062 -11.14023,0 -20.1712314,-9.0352 -20.1712314,-20.18062 0,-11.14544 9.0310014,-20.18064 20.1712314,-20.18064 z m 0,-1.02849 c 11.70831,0 21.199758,9.49563 21.199758,21.20913 0,11.71348 -9.491448,21.20911 -21.199758,21.20911 -11.708291,0 -21.1997414,-9.49563 -21.1997414,-21.20911 0,-11.7135 9.4914504,-21.20913 21.1997414,-21.20913 z" />
      <path
         id="path825"
         style="fill:#000200;fill-rule:evenodd;stroke-width:0.26458332"
         d="m 6.0421336,287.53927 0.60717,0.85265 0.86053,-0.61283 -0.60722,-0.85265 -0.29207,0.20802 -0.15907,-0.36264 0.16047,-0.1143 c 0.1242,-0.0884 0.22537,-0.12544 0.30353,-0.1103 0.0782,0.0143 0.16375,0.087 0.25712,0.21809 l 0.57783,0.81143 c 0.094,0.13202 0.13501,0.23698 0.12266,0.31519 -0.0119,0.0779 -0.0801,0.1614 -0.20418,0.24982 l -0.71623,0.51001 c -0.12282,0.0875 -0.224,0.12449 -0.30194,0.11063 -0.078,-0.0139 -0.16423,-0.0866 -0.25824,-0.21866 l -0.57785,-0.81142 c -0.0934,-0.13113 -0.13358,-0.23601 -0.12155,-0.31464 0.0118,-0.0791 0.0799,-0.16267 0.20262,-0.25009 l 0.12899,-0.0919 0.27527,0.27987 z m 0.49657,-1.73924 -1.44465,0.83188 -0.19346,-0.33597 1.17305,-0.67551 -0.62391,-1.08344 0.2716,-0.15634 z m -2.68896,-1.58901 1.25908,-0.49715 -0.40582,-1.02764 -1.25905,0.49715 -0.14237,-0.36057 1.18443,-0.46768 c 0.14126,-0.0558 0.24842,-0.0674 0.32041,-0.0345 0.0723,0.0322 0.13825,0.12427 0.19799,0.27554 l 0.38658,0.97909 c 0.0591,0.14967 0.0735,0.26101 0.0429,0.33446 -0.0299,0.0738 -0.11607,0.13845 -0.25734,0.1942 l -1.18443,0.46773 z m -0.87476,-3.68194 0.19923,0.86194 0.38722,-0.0895 -0.19926,-0.86194 c -0.0152,-0.0656 -0.0345,-0.10866 -0.0576,-0.12983 -0.0232,-0.0211 -0.0565,-0.0267 -0.0995,-0.0168 l -0.1532,0.0354 c -0.0425,0.01 -0.0694,0.0293 -0.0814,0.0586 -0.0121,0.0293 -0.0105,0.0765 0.005,0.14208 z m 0.65471,-0.15134 0.19923,0.86191 0.41238,-0.0953 -0.19926,-0.86199 c -0.0166,-0.0718 -0.0383,-0.11766 -0.0656,-0.13787 -0.0273,-0.0202 -0.068,-0.024 -0.12255,-0.0115 l -0.12227,0.0282 c -0.0545,0.0126 -0.0889,0.0338 -0.10406,0.0639 -0.0151,0.0301 -0.0145,0.0807 0.002,0.15258 z m 0.99018,1.0704 -1.62418,0.37544 -0.32176,-1.39181 c -0.0296,-0.12801 -0.0258,-0.22667 0.0112,-0.29604 0.0366,-0.0687 0.1102,-0.1161 0.21986,-0.14148 l 0.19773,-0.0457 c 0.0782,-0.0181 0.14621,-0.008 0.20354,0.0292 0.0579,0.0375 0.10269,0.10009 0.13512,0.18765 -0.01,-0.0961 0.007,-0.1763 0.0496,-0.23972 0.0423,-0.0634 0.10729,-0.10493 0.19439,-0.12509 l 0.20667,-0.0477 c 0.10811,-0.025 0.19693,-0.004 0.26768,0.063 0.0708,0.0671 0.12467,0.1806 0.16203,0.34224 z m -0.52504,-2.45285 -1.66225,0.1266 -0.12951,-1.70087 0.28347,-0.0216 0.10009,1.31426 0.37047,-0.0282 -0.0584,-0.76671 0.283451,-0.0216 0.0584,0.76668 0.41235,-0.0313 -0.10133,-1.33046 0.31247,-0.0238 z m -0.33473,-4.51575 0.0634,-0.49781 c 0.0337,-0.26496 0.0165,-0.45815 -0.0522,-0.57925 -0.0682,-0.121 -0.19732,-0.19389 -0.38745,-0.2181 -0.16934,-0.0216 -0.3034,0.008 -0.40217,0.0888 -0.0988,0.0808 -0.15978,0.21087 -0.18261,0.39037 l -0.0869,0.68259 z m 0.26197,0.42421 -1.65373,-0.21045 0.13544,-1.06405 c 0.0387,-0.3039 0.13944,-0.52832 0.30173,-0.67321 0.16285,-0.14536 0.3746,-0.20142 0.63532,-0.1683 0.1543,0.0197 0.28914,0.0694 0.405,0.14875 0.11525,0.0792 0.201,0.18135 0.25736,0.30628 0.0357,0.0778 0.0569,0.17122 0.0636,0.28062 0.007,0.10991 -5.29e-4,0.24794 -0.0219,0.41513 z m 0.44024,-2.6406 -1.60346,-0.45601 0.46662,-1.64078 0.27345,0.0778 -0.36058,1.26777 0.35735,0.10163 0.21034,-0.73956 0.27348,0.0778 -0.21035,0.73956 0.39775,0.11314 0.36502,-1.28342 0.30144,0.0857 z m 1.05796,-5.93857 1.15263,0.74004 -0.20942,0.32623 -1.15266,-0.74006 -0.41365,0.64434 -0.25019,-0.16063 1.03855,-1.61753 0.25019,0.16057 z m 1.81486,-0.24244 -1.35787,-0.967 0.22484,-0.3158 1.35795,0.967 z m 0.55671,-2.82326 -0.60204,0.63048 0.33655,0.32125 0.60196,-0.63047 c 0.0465,-0.0487 0.071,-0.0885 0.0741,-0.11973 0.003,-0.0317 -0.0137,-0.0645 -0.0495,-0.0987 l -0.14529,-0.13869 c -0.035,-0.0335 -0.0681,-0.0479 -0.0996,-0.0438 -0.0311,0.005 -0.0698,0.0309 -0.1162,0.0796 z m 0.13245,1.85888 -1.20574,-1.15123 0.98394,-1.03047 c 0.0918,-0.0962 0.17671,-0.14843 0.2546,-0.15594 0.0779,-0.008 0.15756,0.0268 0.23969,0.10527 l 0.28355,0.2707 c 0.0814,0.0777 0.1201,0.15568 0.11581,0.23424 -0.004,0.0781 -0.0517,0.1657 -0.14359,0.26191 l -0.1502,0.15734 0.98769,-0.12221 -0.38444,0.40265 -0.91972,0.051 -0.25395,0.26601 0.45562,0.435 z m 0.93376,-2.8177 c -0.0934,-0.11899 -0.13475,-0.21797 -0.12454,-0.29647 0.0102,-0.0785 0.0789,-0.16804 0.20648,-0.2681 l 0.9653404,-0.75753 c 0.12795,-0.10038 0.231641,-0.1461 0.31041,-0.13742 0.0791,0.008 0.165361,0.0721 0.25878,0.19113 l 0.542801,0.69175 c 0.0941,0.11991 0.135759,0.21929 0.124779,0.29769 -0.0103,0.0785 -0.0797,0.16798 -0.207679,0.26836 l -0.965381,0.75751 c -0.1275004,0.10009 -0.2304504,0.14591 -0.3091404,0.13718 -0.0784,-0.008 -0.16497,-0.0724 -0.25905,-0.19232 z m 0.89763,0.51601 1.0064714,-0.78978 -0.65214,-0.83108 -1.0064814,0.78978 z m 4.9885114,-2.74738 -0.61069,-1.55112 1.58716,-0.62492 0.10416,0.26453 -1.22645,0.4829 0.13613,0.3457 0.715439,-0.28173 0.104161,0.26456 -0.71548,0.28173 0.1515,0.38473 1.24153,-0.48879 0.1148,0.29159 z m 5.57522,-2.76505 -1.03844,0.13179 0.13301,1.04796 1.03838,-0.13179 -0.0451,-0.35571 0.39478,0.0313 0.0248,0.19545 c 0.0192,0.15121 0.004,0.25789 -0.0463,0.31959 -0.0496,0.0622 -0.15401,0.10316 -0.31374,0.12343 l -0.98822,0.12544 c -0.16078,0.0204 -0.2727,0.007 -0.33573,-0.041 -0.063,-0.0474 -0.10438,-0.14687 -0.12358,-0.29808 l -0.1107,-0.87225 c -0.019,-0.14955 -0.004,-0.25623 0.0454,-0.31838 0.0491,-0.0621 0.15396,-0.10371 0.31475,-0.12409 l 0.98822,-0.12544 c 0.15973,-0.0203 0.27114,-0.006 0.33472,0.0417 0.0642,0.0478 0.10557,0.14727 0.12454,0.29681 l 0.0199,0.15706 -0.37677,0.1102 z m 1.69031,0.67561 0.73097,0.0185 -0.34301,-0.68733 z m -0.76284,0.64646 0.98565,-1.64264 0.37415,0.01 0.91384,1.69063 -0.43545,-0.011 -0.19103,-0.37002 -1.0572,-0.0267 -0.20346,0.36004 z m 4.367469,-0.97462 -1.030469,-0.18375 -0.1855,1.03999 1.030529,0.18373 0.0629,-0.35298 0.3675,0.14758 -0.0346,0.19394 c -0.0268,0.15005 -0.0731,0.24736 -0.13946,0.29126 -0.0659,0.0446 -0.17783,0.0525 -0.33628,0.0243 l -0.980709,-0.17489 c -0.15957,-0.0284 -0.26234,-0.0747 -0.30827,-0.13923 -0.046,-0.064 -0.0559,-0.17126 -0.0291,-0.32131 l 0.15439,-0.86563 c 0.0265,-0.14838 0.0728,-0.2457 0.13814,-0.29036 0.0654,-0.0447 0.1779,-0.0531 0.33747,-0.0246 l 0.980679,0.17484 c 0.15851,0.0283 0.26059,0.075 0.30708,0.13957 0.047,0.0647 0.0568,0.172 0.0303,0.32043 l -0.0278,0.15584 -0.39249,-0.007 z m -1.232129,1.8674 0.0329,-0.18452 c 0.0808,0.0379 0.15406,0.0685 0.21896,0.091 0.0648,0.023 0.1206,0.0384 0.16722,0.0467 0.0551,0.01 0.0988,0.007 0.13039,-0.007 0.0321,-0.0145 0.0516,-0.0411 0.0585,-0.0798 0.008,-0.0435 -0.004,-0.0784 -0.0361,-0.10435 -0.0315,-0.0258 -0.0864,-0.046 -0.16431,-0.0599 -0.006,-10e-4 -0.0166,-0.002 -0.0311,-0.004 -0.015,-0.002 -0.0257,-0.003 -0.0331,-0.004 l 0.0567,-0.31808 0.13991,0.0249 -0.0261,0.14631 0.0249,0.005 c 0.12404,0.0221 0.21196,0.0629 0.263078,0.12288 0.0511,0.06 0.0679,0.14065 0.0498,0.24188 -0.0169,0.0944 -0.0632,0.16105 -0.139669,0.20047 -0.0765,0.0394 -0.17696,0.0477 -0.30155,0.0255 -0.0556,-0.01 -0.11877,-0.0272 -0.189411,-0.0512 -0.0705,-0.0247 -0.14449,-0.0547 -0.221119,-0.0909 z m 2.716818,-0.7807 0.692732,0.23405 -0.124143,-0.75809 z m -0.920009,0.39163 1.427739,-1.27725 0.354542,0.11978 0.37243,1.88539 -0.412721,-0.1394 -0.0729,-0.40998 -1.0019,-0.33845 -0.300989,0.28363 z m 5.091059,2.22631 0.89879,-1.40401 0.326551,0.20905 -0.898789,1.40401 z m 0.98665,0.645 1.029081,-1.31151 0.20841,0.16357 0.316859,1.49767 c 0.0113,0.05 0.02,0.0958 0.02619,0.13761 0.006,0.0418 0.01,0.0821 0.0104,0.12179 0.0532,-0.0773 0.0907,-0.13208 0.11298,-0.16391 0.02249,-0.0323 0.04,-0.0562 0.0529,-0.0727 l 0.540459,-0.68879 0.274481,0.21537 -1.02907,1.31149 -0.208439,-0.16349 -0.327342,-1.56625 c -0.007,-0.0387 -0.0127,-0.0729 -0.0168,-0.10343 -0.004,-0.0302 -0.007,-0.0597 -0.008,-0.0888 -0.0281,0.0437 -0.0546,0.0845 -0.0807,0.12211 -0.02609,0.0377 -0.0499,0.0697 -0.0705,0.096 l -0.556051,0.70866 z m 2.593901,1.84182 0.34658,0.36296 c 0.18441,0.19314 0.345311,0.3016 0.482568,0.32459 0.136951,0.0233 0.274932,-0.031 0.413571,-0.16341 0.123481,-0.11787 0.184951,-0.24058 0.184502,-0.36819 -5.3e-4,-0.12761 -0.0631,-0.25697 -0.188021,-0.3878 l -0.475221,-0.49771 z m -0.49443,-0.064 1.205659,-1.15125 0.74072,0.77575 c 0.211621,0.22154 0.32232,0.4412 0.332512,0.6585 0.01021,0.2181 -0.0797,0.41786 -0.269722,0.59931 -0.112529,0.1075 -0.236108,0.18079 -0.370728,0.22071 -0.134202,0.0396 -0.267502,0.0418 -0.4,0.007 -0.083,-0.0214 -0.168812,-0.0637 -0.257942,-0.1275 -0.0895,-0.0641 -0.192138,-0.15677 -0.308528,-0.27861 z m 1.76208,2.01456 1.35781,-0.96705 0.9896,1.38946 -0.231621,0.16492 -0.76462,-1.07363 -0.302598,0.21553 0.446029,0.62627 -0.231561,0.16497 -0.44604,-0.62632 -0.336838,0.23987 0.774009,1.08685 -0.25527,0.1818 z m 3.10673,2.47317 -0.39782,-0.77568 -0.393861,0.20204 0.39782,0.7756 c 0.0308,0.0599 0.0602,0.0962 0.0888,0.1094 0.0286,0.0132 0.0653,0.008 0.109458,-0.0144 l 0.15857,-0.0814 c 0.0431,-0.0221 0.0676,-0.0486 0.0741,-0.0797 0.006,-0.0309 -0.006,-0.0761 -0.037,-0.13591 z m -1.79932,-0.48527 1.483299,-0.76084 0.65024,1.26767 c 0.0607,0.11835 0.0822,0.21569 0.0637,0.29173 -0.0177,0.0763 -0.077,0.14 -0.178141,0.19183 l -0.331518,0.17007 c -0.10065,0.0516 -0.186962,0.0626 -0.25977,0.0328 -0.0725,-0.0294 -0.139042,-0.10361 -0.199732,-0.22193 l -0.47625,-0.92848 -0.577829,0.29636 z m 1.02372,2.10799 1.578801,-0.53507 0.547529,1.61555 -0.269269,0.0913 -0.423072,-1.24836 -0.35184,0.11922 0.246782,0.72824 -0.269272,0.0913 -0.2468,-0.72824 -0.391639,0.13277 0.428249,1.26365 -0.296799,0.10057 z m 0.75116,2.25859 1.64097,-0.29343 0.0466,0.2608 -0.760711,1.32845 c -0.02479,0.0449 -0.0488,0.0847 -0.072,0.12009 -0.0232,0.0353 -0.0476,0.0676 -0.0733,0.0978 0.0912,-0.0223 0.15566,-0.0381 0.193408,-0.0471 0.0383,-0.009 0.0673,-0.0153 0.0879,-0.019 l 0.86188,-0.15406 0.0614,0.34342 -1.64102,0.29343 -0.0466,-0.26075 0.79843,-1.38663 c 0.0209,-0.0333 0.0391,-0.0628 0.0564,-0.0883 0.0168,-0.0254 0.0344,-0.0494 0.0528,-0.0718 -0.05,0.0139 -0.097,0.0267 -0.14152,0.0374 -0.0446,0.0107 -0.0836,0.0188 -0.116528,0.0247 l -0.886722,0.15857 z m 0.784829,3.0962 0.0127,0.50171 c 0.007,0.26696 0.053,0.45534 0.139282,0.56472 0.0857,0.10925 0.22439,0.16177 0.41597,0.15693 0.170658,-0.004 0.298669,-0.0539 0.384069,-0.14867 0.0854,-0.0948 0.12605,-0.23268 0.12147,-0.41352 l -0.01749,-0.68794 z m -0.32311,-0.37965 1.666532,-0.0422 0.0272,1.07228 c 0.008,0.30623 -0.0579,0.54329 -0.196371,0.71109 -0.139039,0.16833 -0.33986,0.2558 -0.602539,0.26247 -0.155551,0.004 -0.296359,-0.0248 -0.422859,-0.0857 -0.125942,-0.0609 -0.226161,-0.14883 -0.300721,-0.26376 -0.0471,-0.0715 -0.0822,-0.16063 -0.10538,-0.26779 -0.0232,-0.10763 -0.0369,-0.24516 -0.0412,-0.41365 z m 0.01281,2.67735 1.66219,0.12655 -0.129509,1.70093 -0.283501,-0.0216 0.100121,-1.31427 -0.370451,-0.0282 -0.0584,0.76668 -0.283501,-0.0216 0.0584,-0.76668 -0.412329,-0.0314 -0.10133,1.33046 -0.312471,-0.0238 z m 1.806231,0.53287 0.52504,0.33753 -0.02609,0.3425 -0.570119,0.25413 0.01569,-0.20613 0.351649,-0.23567 -0.311682,-0.28943 z m -2.08439,1.82671 1.624169,0.37544 -0.0596,0.25813 -1.221791,0.92234 c -0.0404,0.0316 -0.0782,0.0587 -0.11345,0.0821 -0.0353,0.0234 -0.0703,0.0435 -0.105908,0.0612 0.0926,0.0154 0.15811,0.0261 0.196369,0.0327 0.0388,0.007 0.0679,0.0124 0.0883,0.0171 l 0.85307,0.19725 -0.0786,0.33991 -1.624169,-0.37547 0.0596,-0.25808 1.279359,-0.96099 c 0.0322,-0.0224 0.0606,-0.0424 0.0865,-0.059 0.02551,-0.0168 0.0511,-0.0319 0.0768,-0.0453 -0.0515,-0.007 -0.0997,-0.0136 -0.144831,-0.0213 -0.0452,-0.008 -0.0842,-0.0156 -0.116808,-0.0231 l -0.877681,-0.20283 z m 0.0345,4.45775 0.384501,-0.97358 -0.982591,-0.38796 -0.38444,0.97359 0.33351,0.1317 -0.21749,0.33089 -0.183269,-0.0724 c -0.141772,-0.056 -0.22792,-0.1207 -0.25781,-0.19444 -0.0307,-0.0735 -0.0163,-0.18468 0.0428,-0.33443 l 0.36589,-0.92652 c 0.0595,-0.15079 0.125229,-0.24233 0.197561,-0.27456 0.0718,-0.0324 0.178938,-0.0208 0.320699,0.0352 l 0.81783,0.32298 c 0.1402,0.0553 0.22638,0.12004 0.25723,0.19298 0.0308,0.0729 0.0168,0.18489 -0.0428,0.33563 l -0.36581,0.92657 c -0.0591,0.14967 -0.12515,0.24058 -0.197702,0.27326 -0.0728,0.0333 -0.17989,0.0216 -0.32009,-0.0337 l -0.14727,-0.0581 0.0848,-0.38333 z m -1.785011,0.50544 1.48328,0.76086 -0.176979,0.34494 -1.483249,-0.76084 z m -0.257678,1.78138 -0.424151,0.59558 0.761601,0.1002 z m -0.109141,-0.9939 0.81034,1.73585 -0.217141,0.30482 -1.91257,-0.18817 0.25268,-0.35478 0.41357,0.0486 0.613492,-0.86138 -0.184631,-0.37004 z m -23.656839,7.08665 -0.89443,-0.45678 -0.3983,0.77992 0.89445,0.45677 0.1401,-0.27427 -0.46752,-0.23878 0.10718,-0.20984 0.7466,0.38126 -0.21685,0.4245 c -0.0574,0.11255 -0.11774,0.17849 -0.18055,0.19754 -0.0627,0.0196 -0.15412,-0.002 -0.27377,-0.0627 l -0.84912,-0.4336 c -0.11967,-0.0611 -0.18997,-0.12261 -0.21085,-0.18487 -0.021,-0.0618 -0.003,-0.14933 0.0546,-0.26183 l 0.33134,-0.64881 c 0.057,-0.11168 0.11708,-0.17722 0.17989,-0.19727 0.0627,-0.0196 0.15393,7.9e-4 0.27358,0.062 l 0.8491,0.43362 c 0.11808,0.0603 0.18846,0.12176 0.21084,0.18384 0.0219,0.0623 0.006,0.14605 -0.0476,0.25135 l -0.0144,0.0282 -0.30488,-0.092 z m 1.09236,0.60502 c 0.0463,-0.11652 0.1,-0.1874 0.16052,-0.21283 0.0605,-0.0254 0.1533,-0.0134 0.27816,0.0362 l 0.94519,0.37608 c 0.12526,0.0498 0.20127,0.10501 0.22784,0.1651 0.027,0.0602 0.0173,0.14859 -0.029,0.26511 l -0.26948,0.67728 c -0.0467,0.1174 -0.10054,0.18873 -0.16134,0.21352 -0.0605,0.0254 -0.15357,0.0129 -0.2788,-0.037 l -0.94522,-0.37603 c -0.12483,-0.0497 -0.20061,-0.10429 -0.2272,-0.16435 -0.0267,-0.0596 -0.0168,-0.14838 0.0299,-0.26581 z m 0.004,0.85828 0.98546,0.39206 0.32372,-0.8137 -0.98544,-0.39203 z m 2.23102,0.99288 0.31041,-1.34665 0.31313,0.0722 -0.31041,1.34662 z m 1.817471,-0.16552 0.601579,0.0742 -0.22754,-0.59468 z m -0.681541,0.47191 0.94568,-1.27582 0.30789,0.038 0.61772,1.46854 -0.35837,-0.0442 -0.127799,-0.3207 -0.87005,-0.10724 -0.196991,0.28062 z m 0.73967,-1.44698 0.29977,-0.4218 0.28271,0.0349 0.188361,0.48199 -0.170081,-0.021 -0.18158,-0.30028 -0.2517,0.24688 z m 1.952921,1.71407 0.0399,-1.38133 0.219549,0.006 0.94906,0.84235 c 0.0323,0.0277 0.0605,0.054 0.0853,0.0788 0.0247,0.0249 0.0468,0.05 0.067,0.0761 -0.003,-0.0778 -0.005,-0.13274 -0.006,-0.16491 -7.94e-4,-0.0326 -0.001,-0.0572 -5.3e-4,-0.0746 l 0.021,-0.72546 0.28914,0.008 -0.0399,1.38134 -0.219581,-0.006 -0.98989,-0.88292 c -0.0235,-0.0225 -0.0444,-0.0423 -0.0621,-0.0607 -0.0178,-0.0179 -0.0342,-0.0363 -0.0493,-0.055 0.003,0.043 0.005,0.0832 0.006,0.12116 10e-4,0.038 10e-4,0.071 2.65e-4,0.0987 l -0.0216,0.74646 z m 2.721099,-0.0369 -0.10472,-1.378 0.320441,-0.0243 0.104719,1.378 z m 1.6637,-0.77663 0.596369,-0.10858 -0.39454,-0.49978 z m -0.50977,0.65368 0.52218,-1.49976 0.305229,-0.0556 1.02748,1.21753 -0.355229,0.0647 -0.217591,-0.26794 -0.862488,0.15703 -0.104271,0.32665 z m 3.23985,-1.40563 -0.0882,-0.26132 0.59124,-0.19961 0.0882,0.26139 z m 3.087079,-2.03882 -0.86786,0.50554 0.440799,0.75676 0.867862,-0.50554 -0.155022,-0.26614 -0.453609,0.26423 -0.118629,-0.20365 0.7244,-0.42193 0.239919,0.41191 c 0.0636,0.10914 0.0865,0.19555 0.0685,0.25868 -0.01741,0.0633 -0.0846,0.12883 -0.200711,0.19643 l -0.823809,0.47992 c -0.11612,0.0676 -0.20592,0.0935 -0.269531,0.0774 -0.0634,-0.0158 -0.127159,-0.0783 -0.190791,-0.18751 l -0.366689,-0.62945 c -0.0631,-0.1084 -0.0858,-0.19431 -0.0687,-0.25799 0.01741,-0.0633 0.084,-0.12896 0.20011,-0.19664 l 0.823859,-0.47985 c 0.11456,-0.0668 0.20428,-0.0927 0.268629,-0.078 0.0642,0.0153 0.12618,0.0738 0.18574,0.176 l 0.0159,0.0273 -0.2422,0.20675 z m 1.08625,-0.53801 c -0.0778,-0.0983 -0.11248,-0.18018 -0.104331,-0.24532 0.008,-0.0651 0.0649,-0.13956 0.170212,-0.22294 l 0.79761,-0.63142 c 0.10573,-0.0836 0.191529,-0.122 0.256828,-0.11507 0.0656,0.007 0.137372,0.0592 0.21521,0.15751 l 0.452411,0.57152 c 0.0784,0.0991 0.113329,0.18137 0.104521,0.24641 -0.008,0.0651 -0.0655,0.13949 -0.17122,0.22317 l -0.79761,0.63138 c -0.10536,0.0834 -0.190532,0.12176 -0.255831,0.11486 -0.065,-0.007 -0.13697,-0.0595 -0.215421,-0.15857 z m 0.74591,0.42458 0.831591,-0.65831 -0.54356,-0.68662 -0.831562,0.65828 z" />
      <path
         id="path827"
         style="fill:#000200;fill-rule:evenodd;stroke-width:0.26458332"
         d="m 35.669043,266.89854 c -0.826929,2.13199 -2.897769,3.64368 -5.321908,3.64368 -3.15164,0 -5.70651,-2.55487 -5.70651,-5.7065 0,-1.68363 0.729269,-3.19678 1.888969,-4.24127 l 2.004931,0.8101 c -1.18404,0.62674 -2.004611,1.84819 -2.063851,3.26657 h -1.381499 v 0.34348 h 1.382129 c 0.0921,2.02883 1.74218,3.65162 3.782031,3.70002 v 1.46264 h 0.343508 v -1.46966 c 1.891141,-0.12014 3.414242,-1.59493 3.60916,-3.46479 z m -5.498679,-3.66657 h 0.50946 v -0.83402 l -0.50946,-0.24209 z m 0,5.15559 h 0.50946 v -1.9337 h -0.50946 z m 3.799361,-3.28996 v -0.15041 l -0.265081,-0.35907 h -1.6686 v 0.50948 z m -5.155591,0 v -0.50948 h -1.933681 v 0.50948 z" />
      <path
         id="path829"
         style="fill:#000200;fill-rule:evenodd;stroke-width:0.26458332"
         d="m 27.408722,272.02024 -0.412329,0.36719 h 2.18625 l 0.4953,0.34158 h 0.638841 v -0.38598 h 0.8581 v 0.38598 h 1.370459 v -0.71425 h -0.161078 v -0.4582 h 1.249788 v 0.4582 h -0.161081 v 0.71425 h 1.377741 v -0.38598 h 0.742842 v 0.38598 h 0.796658 l 0.52946,-0.3074 h 1.42499 c 0.15222,0.59129 0.27146,1.19565 0.35827,1.81044 h -1.800328 l -0.341572,-0.22204 h -0.967478 v 0.5152 h 3.148698 c 0.083,0.67191 0.126,1.35628 0.126,2.05063 0,0.606 -0.0333,1.20414 -0.0965,1.79337 l -2.68359,0.10432 -2.282301,0.82788 v 1.36491 l -4.16171,0.55938 v -1.2083 l -2.125628,0.64892 -5.03963,7.9851 c -0.0469,0.0743 -0.049,0.0837 -0.1216,0.0339 l -10.42469,-7.1411 -3.4800414,4.42907 c -1.22719,-1.78708 -2.11433,-3.82503 -2.56794,-6.02131 l 0.0422,-0.0249 4.5302804,-6.56839 2.080811,-0.70144 0.521709,-0.50352 c 0.0784,-0.0756 0.0965,-0.0753 0.163401,0.009 l 0.116629,0.14687 h 0.574651 c 0.2014,-0.69858 0.5017,-1.35904 0.87903,-1.98991 l 2.12053,0.85201 c -0.18222,0.74832 -0.0618,1.41862 0.59639,1.95012 -0.326311,-0.73089 -0.38489,-1.42357 -0.14197,-2.0732 0.3829,-0.89117 1.023139,-1.22719 1.94064,-0.85199 0.25918,0.10597 0.46667,0.28441 0.63426,0.49226 l 0.33133,-0.48278 c -0.15464,-0.18881 -0.33401,-0.34814 -0.54824,-0.45482 0.005,-0.0181 0.008,-0.0373 0.008,-0.0571 v -0.10904 c 0,-0.11678 -0.0955,-0.21227 -0.21225,-0.21227 v 0 c -0.11665,0 -0.21206,0.0953 -0.21225,0.2119 -0.019,-0.005 -0.0382,-0.009 -0.0575,-0.013 -1.03732,-0.20124 -1.79125,0.29012 -2.29089,1.30636 l -2.30042,-1.02235 1.02574,-2.08661 c 0.74673,-1.519 2.66665,-2.42075 4.27304,-2.17371 l 0.003,5.3e-4 0.20561,-0.35978 1.73953,0.55025 -0.12377,0.33803 c 1.41097,0.6622 2.33944,1.88645 2.47044,3.92443 1.053459,0.47144 2.082929,0.98145 3.034591,1.61531 0.16256,0.10824 0.25233,0.23858 0.120348,0.35608 z m 10.242021,10.80736 c -0.780118,1.91997 -1.908759,3.66127 -3.30753,5.14625 l -8.372029,-4.01601 1.364879,-2.25909 z m -4.307128,6.12248 c -1.53834,1.38179 -3.33584,2.48103 -5.31069,3.21752 l -5.16805,-3.19736 2.776829,-4.51821 z m -14.759541,3.86956 c -2.42072,-0.53573 -4.64336,-1.59692 -6.541799,-3.05768 l 3.75299,-5.23666 2.80797,1.92788 z m -6.86191,-3.31028 c -1.17915,-0.95398 -2.2261604,-2.06489 -3.1070904,-3.30192 l 3.4149014,-4.29906 3.38812,2.32357 z m 21.750808,-15.49935 v 0.5152 h 1.377741 v -0.5152 z m -0.927629,0.5152 v -0.5152 h -1.370459 v 0.5152 z m -2.228559,0 v -0.5152 h -0.860869 l -0.358672,0.29036 h -3.381779 v -1.45177 c -0.599409,-0.0199 -1.189989,-0.1682 -1.798179,-0.35507 l -3.0724,-0.94412 c 0.009,0.0848 0.0431,0.17227 0.1342,0.26543 l 2.23822,0.67324 -0.22733,0.46336 0.51585,1.25902 -0.55081,0.52459 h -0.28852 v 0.32353 h 3.042569 v -0.53337 z m -5.405409,5.14816 -3.06597,3.17349 -1.45227,-2.16951 0.73509,-0.6096 z" />
    </g>
  </g>
</svg>
