<?xml version="1.0" encoding="UTF-8" standalone="no"?>
<!-- Created with Inkscape (http://www.inkscape.org/) -->

<svg
   xmlns:dc="http://purl.org/dc/elements/1.1/"
   xmlns:cc="http://creativecommons.org/ns#"
   xmlns:rdf="http://www.w3.org/1999/02/22-rdf-syntax-ns#"
   xmlns:svg="http://www.w3.org/2000/svg"
   xmlns="http://www.w3.org/2000/svg"
   xmlns:sodipodi="http://sodipodi.sourceforge.net/DTD/sodipodi-0.dtd"
   xmlns:inkscape="http://www.inkscape.org/namespaces/inkscape"
   width="89"
   height="30"
   viewBox="0 0 23.547916 7.9375002"
   version="1.1"
   id="svg910"
   inkscape:version="0.92.4 (5da689c313, 2019-01-14)"
   sodipodi:docname="ctci-logo-full.svg">
  <defs
     id="defs904" />
  <sodipodi:namedview
     id="base"
     pagecolor="#ffffff"
     bordercolor="#666666"
     borderopacity="1.0"
     inkscape:pageopacity="0.0"
     inkscape:pageshadow="2"
     inkscape:zoom="7.9195959"
     inkscape:cx="45.986815"
     inkscape:cy="11.893148"
     inkscape:document-units="mm"
     inkscape:current-layer="layer1"
     showgrid="false"
     units="px"
     inkscape:window-width="1920"
     inkscape:window-height="1017"
     inkscape:window-x="-8"
     inkscape:window-y="-8"
     inkscape:window-maximized="1" />
  <metadata
     id="metadata907">
    <rdf:RDF>
      <cc:Work
         rdf:about="">
        <dc:format>image/svg+xml</dc:format>
        <dc:type
           rdf:resource="http://purl.org/dc/dcmitype/StillImage" />
        <dc:title></dc:title>
      </cc:Work>
    </rdf:RDF>
  </metadata>
  <g
     inkscape:label="Layer 1"
     inkscape:groupmode="layer"
     id="layer1"
     transform="translate(0,-289.06248)">
    <path
       d="m 11.495316,292.14215 h -1.449648 v 1.74766 h 1.449648 v -0.49832 h 0.876273 v 0.4696 c 0,0.21283 -0.02231,0.50342 -0.171116,0.67023 -0.149153,0.16717 -0.411577,0.19799 -0.622383,0.19799 H 9.9628903 c -0.2107007,0 -0.4764997,-0.0301 -0.6246947,-0.19865 C 9.1914492,294.36378 9.1694,294.07285 9.1694,293.86109 v -1.66072 c 0,-0.21159 0.022484,-0.50038 0.1685906,-0.6673 0.147955,-0.16907 0.413951,-0.19991 0.6248997,-0.19991 H 11.57809 c 0.211055,0 0.473682,0.0316 0.622588,0.19926 0.148115,0.16689 0.170911,0.4553 0.170911,0.66795 v 0.4019 h -0.876273 z m 1.378776,1.54887 h 1.020744 v 1.02075 h -1.020744 z m 2.385525,-1.54887 v 2.58715 h -0.876284 v -2.58715 h -1.241521 v -0.80899 h 3.364561 v 0.80899 z m 0.826282,1.54887 h 1.020746 v 1.02075 h -1.020746 z m 3.876832,-1.54887 h -1.449652 v 1.74766 h 1.449652 v -0.49832 h 0.876273 v 0.4696 c 0,0.21283 -0.02231,0.50342 -0.171114,0.67023 -0.149164,0.16717 -0.411569,0.19799 -0.622393,0.19799 h -1.615194 c -0.210681,0 -0.476499,-0.0301 -0.624703,-0.19865 -0.146738,-0.16688 -0.168796,-0.45781 -0.168796,-0.66957 v -1.66072 c 0,-0.21159 0.02249,-0.50038 0.1686,-0.6673 0.147965,-0.16907 0.41396,-0.19991 0.624899,-0.19991 h 1.615194 c 0.211073,0 0.473691,0.0316 0.622596,0.19926 0.148125,0.16689 0.170911,0.4553 0.170911,0.66795 v 0.4019 h -0.876273 z m 1.03652,1.54887 h 1.020754 v 1.02075 h -1.020754 z m 1.372893,1.03829 v -3.39615 h 0.876247 v 3.39615 z"
       style="fill:#000000;fill-rule:evenodd;stroke-width:0.12032824"
       id="path819"
       inkscape:connector-curvature="0" />
    <g
       id="g869"
       transform="matrix(0.0478257,0,0,0.04782099,12.820539,286.85754)">
      <path
         inkscape:connector-curvature="0"
         id="path821"
         style="fill:#c4c6c8;fill-rule:evenodd;stroke:#1b1918;stroke-width:0.56690001;stroke-linecap:butt;stroke-linejoin:miter;stroke-dasharray:none"
         d="m -185.05919,46.321608 a 82.6975,82.7329 0 0 1 82.6975,82.733002 82.6975,82.7329 0 1 1 -82.6975,-82.733002 z" />
      <path
         inkscape:connector-curvature="0"
         id="path823"
         style="fill:#000200;fill-rule:evenodd"
         d="m -185.05919,52.781308 c 42.1049,0 76.2378,34.1488 76.2378,76.273302 0,42.1244 -34.1329,76.2732 -76.2378,76.2732 -42.1048,0 -76.2377,-34.1488 -76.2377,-76.2732 0,-42.124502 34.1329,-76.273302 76.2377,-76.273302 z m 0,-3.8872 c 44.2519,0 80.1251,35.889 80.1251,80.160502 0,44.2714 -35.8732,80.1604 -80.1251,80.1604 -44.2518,0 -80.125,-35.889 -80.125,-80.1604 0,-44.271502 35.8732,-80.160502 80.125,-80.160502 z" />
      <path
         inkscape:connector-curvature="0"
         id="path825"
         style="fill:#000200;fill-rule:evenodd"
         d="m -246.14609,170.14971 2.2948,3.2226 3.2524,-2.3162 -2.295,-3.2226 -1.1039,0.7862 -0.6012,-1.3706 0.6065,-0.432 c 0.4694,-0.334 0.8518,-0.4741 1.1472,-0.4169 0.2957,0.0541 0.6189,0.3287 0.9718,0.8243 l 2.1839,3.0668 c 0.3554,0.499 0.5103,0.8957 0.4636,1.1913 -0.0451,0.2944 -0.3026,0.61 -0.7717,0.9442 l -2.707,1.9276 c -0.4642,0.3306 -0.8466,0.4705 -1.1412,0.4181 -0.2946,-0.0524 -0.6207,-0.3274 -0.976,-0.8264 l -2.184,-3.0668 c -0.3529,-0.4956 -0.5049,-0.892 -0.4594,-1.1892 0.0444,-0.299 0.3018,-0.6148 0.7658,-0.9452 l 0.4875,-0.3472 1.0404,1.0578 z m 1.8768,-6.5735 -5.4601,3.1441 -0.7312,-1.2698 4.4336,-2.5531 -2.3581,-4.0949 1.0265,-0.5909 z m -10.163,-6.0057 4.7587,-1.879 -1.5338,-3.884 -4.7586,1.879 -0.5381,-1.3628 4.4766,-1.7676 c 0.5339,-0.2109 0.9389,-0.2548 1.211,-0.1303 0.2734,0.1217 0.5225,0.4697 0.7483,1.0414 l 1.4611,3.7005 c 0.2235,0.5657 0.2778,0.9865 0.1622,1.2641 -0.113,0.2788 -0.4387,0.5233 -0.9726,0.734 l -4.4766,1.7678 z m -3.3062,-13.916 0.753,3.2577 1.4635,-0.3382 -0.7531,-3.2577 c -0.0574,-0.2479 -0.1305,-0.4107 -0.2178,-0.4907 -0.0875,-0.0798 -0.2134,-0.101 -0.3762,-0.0635 l -0.579,0.1338 c -0.1607,0.0372 -0.2624,0.1109 -0.3078,0.2216 -0.0457,0.1109 -0.0398,0.2891 0.0174,0.537 z m 2.4745,-0.572 0.753,3.2576 1.5586,-0.3601 -0.7531,-3.2579 c -0.0627,-0.2715 -0.1446,-0.4447 -0.2479,-0.5211 -0.1033,-0.0764 -0.2571,-0.0909 -0.4632,-0.0433 l -0.4621,0.1067 c -0.206,0.0477 -0.336,0.1279 -0.3933,0.2414 -0.0572,0.1136 -0.0547,0.3051 0.008,0.5767 z m 3.7424,4.0456 -6.1386,1.419 -1.2161,-5.2604 c -0.1117,-0.4838 -0.0976,-0.8567 0.0423,-1.1189 0.1385,-0.2597 0.4165,-0.4388 0.831,-0.5347 l 0.7473,-0.1728 c 0.2956,-0.0682 0.5526,-0.0315 0.7693,0.1105 0.2187,0.1418 0.3881,0.3783 0.5107,0.7092 -0.0361,-0.3633 0.0276,-0.6663 0.1873,-0.906 0.1598,-0.2396 0.4055,-0.3966 0.7347,-0.4728 l 0.7811,-0.1804 c 0.4086,-0.0946 0.7443,-0.0155 1.0117,0.2381 0.2675,0.2535 0.4712,0.6826 0.6124,1.2935 z m -1.9844,-9.2706 -6.2825,0.4785 -0.4895,-6.4285 1.0714,-0.0815 0.3783,4.9673 1.4002,-0.1065 -0.2207,-2.8978 1.0713,-0.0817 0.2207,2.8977 1.5585,-0.1185 -0.383,-5.0285 1.181,-0.0899 z m -1.2651,-17.0674 0.2396,-1.8815 c 0.1274,-1.0014 0.0625,-1.7316 -0.1973,-2.1893 -0.2578,-0.4573 -0.7458,-0.7328 -1.4644,-0.8243 -0.64,-0.0816 -1.1467,0.0303 -1.52,0.3358 -0.3733,0.3052 -0.6039,0.797 -0.6902,1.4754 l -0.3283,2.5799 z m 0.9901,1.6033 -6.2503,-0.7954 0.5119,-4.0216 c 0.1461,-1.1486 0.527,-1.9968 1.1404,-2.5444 0.6155,-0.5494 1.4158,-0.7613 2.4012,-0.6361 0.5832,0.0743 1.0928,0.2622 1.5307,0.5622 0.4356,0.2995 0.7597,0.6854 0.9727,1.1576 0.1348,0.2942 0.215,0.6471 0.2403,1.0606 0.0252,0.4154 -0.002,0.9371 -0.0827,1.569 z m 1.6639,-9.9802 -6.0603,-1.7235 1.7636,-6.2014 1.0335,0.2941 -1.3628,4.7916 1.3506,0.3841 0.795,-2.7952 1.0336,0.2941 -0.795,2.7952 1.5033,0.4276 1.3796,-4.8507 1.1393,0.3239 z m 3.9986,-22.445002 4.3564,2.797 -0.7915,1.233 -4.3565,-2.7971 -1.5634,2.4353 -0.9456,-0.6071 3.9252,-6.1135 0.9456,0.6069 z m 6.8593,-0.9163 -5.1321,-3.6548 0.8498,-1.1936 5.1324,3.6548 z m 2.1041,-10.6706 -2.2754,2.3829 1.272,1.2142 2.2751,-2.3829 c 0.1757,-0.1839 0.2685,-0.3344 0.2802,-0.4525 0.0104,-0.1199 -0.0517,-0.2438 -0.187,-0.373 l -0.5491,-0.5242 c -0.1325,-0.1265 -0.2575,-0.1812 -0.3766,-0.1654 -0.1175,0.0172 -0.2637,0.1168 -0.4392,0.3009 z m 0.5006,7.0257 -4.5571,-4.3511 3.7188,-3.8947 c 0.347,-0.3636 0.6679,-0.561 0.9623,-0.5894 0.2944,-0.0312 0.5955,0.1014 0.9059,0.3979 l 1.0717,1.0231 c 0.3075,0.2936 0.4539,0.5884 0.4377,0.8853 -0.0147,0.2953 -0.1955,0.6263 -0.5427,0.9899 l -0.5677,0.5947 3.733,-0.4619 -1.453,1.5218 -3.4761,0.1926 -0.9598,1.0054 1.722,1.6441 z m 3.5292,-10.6496 c -0.3531,-0.4497 -0.5093,-0.8238 -0.4707,-1.1205 0.0387,-0.2967 0.2983,-0.6351 0.7804,-1.0133 l 3.6485,-2.8631 c 0.4836,-0.3794 0.8755,-0.5522 1.1732,-0.5194 0.299,0.0318 0.625,0.2725 0.9781,0.7224 l 2.0515,2.6145 c 0.3556,0.4532 0.5131,0.8288 0.4716,1.1251 -0.0389,0.2968 -0.3013,0.6349 -0.7849,1.0143 l -3.6487,2.863 c -0.4819,0.3783 -0.871,0.5515 -1.1684,0.5185 -0.2962,-0.0314 -0.6235,-0.2738 -0.9791,-0.7269 z m 3.3926,1.9503 3.804,-2.985 -2.4648,-3.1411 -3.804,2.985 z m 18.8542,-10.3838 -2.3081,-5.8625 5.9987,-2.3619 0.3937,0.9998 -4.6354,1.8251 0.5145,1.3066 2.704,-1.0648 0.3937,0.9999 -2.7042,1.0648 0.5726,1.4541 4.6924,-1.8474 0.4339,1.1021 z m 21.0717,-10.4506 -3.9248,0.4981 0.5027,3.9608 3.9246,-0.4981 -0.1706,-1.3444 1.4921,0.1184 0.0937,0.7387 c 0.0724,0.5715 0.0149,0.9747 -0.1751,1.2079 -0.1875,0.2352 -0.5821,0.3899 -1.1858,0.4665 l -3.735,0.4741 c -0.6077,0.077 -1.0307,0.0261 -1.2689,-0.1549 -0.238,-0.1791 -0.3945,-0.5551 -0.4671,-1.1266 l -0.4184,-3.2967 c -0.0717,-0.5652 -0.0141,-0.9684 0.1715,-1.2033 0.1854,-0.2348 0.5819,-0.392 1.1896,-0.469 l 3.735,-0.4741 c 0.6037,-0.0766 1.0248,-0.0232 1.2651,0.1576 0.2426,0.1805 0.399,0.5566 0.4707,1.1218 l 0.0752,0.5936 -1.424,0.4165 z m 6.3886,2.5535 2.7627,0.0698 -1.2964,-2.5978 z m -2.8832,2.4433 3.7253,-6.2084 1.4141,0.0357 3.4539,6.3898 -1.6458,-0.0416 -0.722,-1.3985 -3.9957,-0.1008 -0.769,1.3608 z m 16.507,-3.6836 -3.8947,-0.6945 -0.7011,3.9307 3.8949,0.6944 0.2378,-1.3341 1.389,0.5578 -0.1307,0.733 c -0.1012,0.5671 -0.2763,0.9349 -0.5271,1.1008 -0.2492,0.1685 -0.6721,0.1986 -1.271,0.0919 l -3.7066,-0.661 c -0.6031,-0.1075 -0.9915,-0.2823 -1.1651,-0.5262 -0.1737,-0.2418 -0.2111,-0.6473 -0.1099,-1.2144 l 0.5835,-3.2717 c 0.1,-0.5608 0.2751,-0.9286 0.5221,-1.0974 0.2471,-0.1689 0.6724,-0.2007 1.2755,-0.093 l 3.7065,0.6608 c 0.5991,0.1069 0.9849,0.2834 1.1606,0.5275 0.1776,0.2446 0.2148,0.6501 0.1147,1.2111 l -0.105,0.589 -1.4834,-0.0269 z m -4.6569,7.0579 0.1242,-0.6974 c 0.3053,0.1433 0.5823,0.259 0.8276,0.3441 0.2448,0.0869 0.4558,0.1452 0.632,0.1767 0.2083,0.0371 0.3735,0.0274 0.4928,-0.0278 0.1214,-0.0549 0.1951,-0.1555 0.2212,-0.3017 0.0294,-0.1642 -0.0152,-0.2963 -0.1364,-0.3944 -0.1189,-0.0976 -0.3266,-0.174 -0.621,-0.2264 -0.0221,-0.004 -0.0627,-0.0092 -0.1174,-0.0147 -0.0568,-0.0061 -0.0972,-0.0112 -0.1252,-0.0162 l 0.2144,-1.2022 0.5288,0.0943 -0.0985,0.553 0.0941,0.017 c 0.4688,0.0835 0.8011,0.2378 0.9943,0.4644 0.193,0.2267 0.2565,0.5316 0.1883,0.9142 -0.0637,0.3568 -0.2388,0.6087 -0.5279,0.7577 -0.289,0.149 -0.6688,0.1804 -1.1397,0.0964 -0.2103,-0.0375 -0.4489,-0.1027 -0.7159,-0.1936 -0.2665,-0.0932 -0.5461,-0.2069 -0.8357,-0.3434 z m 10.2683,-2.9507 2.6182,0.8846 -0.4692,-2.8652 z m -3.4772,1.4802 5.3962,-4.8274 1.34,0.4527 1.4076,7.1259 -1.5599,-0.5269 -0.2755,-1.5495 -3.7867,-1.2792 -1.1376,1.072 z m 19.2418,8.4144 3.397,-5.3065 1.2342,0.7901 -3.397,5.3065 z m 3.7291,2.4378 3.8894,-4.9569 0.7877,0.6182 1.1976,5.6605 c 0.0429,0.1891 0.0755,0.3619 0.0989,0.5201 0.0235,0.1581 0.036,0.3102 0.0395,0.4603 0.201,-0.2923 0.343,-0.4992 0.427,-0.6195 0.0852,-0.1219 0.1511,-0.2124 0.2001,-0.2749 l 2.0427,-2.6033 1.0374,0.814 -3.8894,4.9568 -0.7878,-0.6179 -1.2372,-5.9197 c -0.025,-0.1464 -0.0478,-0.2754 -0.0633,-0.3909 -0.0166,-0.1141 -0.0272,-0.2258 -0.0318,-0.3355 -0.1061,0.165 -0.2064,0.3193 -0.3051,0.4615 -0.0987,0.1425 -0.1886,0.2633 -0.2666,0.3628 l -2.1016,2.6784 z m 9.8037,6.9612 1.3099,1.3718 c 0.697,0.73 1.3051,1.1399 1.8239,1.2268 0.5176,0.088 1.0391,-0.1172 1.5631,-0.6176 0.4667,-0.4455 0.699,-0.9093 0.6973,-1.3916 -0.002,-0.4823 -0.2384,-0.9712 -0.7106,-1.4657 l -1.7961,-1.8811 z m -1.8687,-0.2418 4.5568,-4.3512 2.7996,2.932 c 0.7998,0.8373 1.2182,1.6675 1.2567,2.4888 0.0385,0.8243 -0.3012,1.5793 -1.0194,2.2651 -0.4253,0.4063 -0.8924,0.6833 -1.4012,0.8342 -0.5072,0.1496 -1.011,0.158 -1.5118,0.0258 -0.3135,-0.0808 -0.638,-0.2409 -0.9749,-0.4819 -0.3384,-0.2424 -0.7262,-0.5925 -1.1661,-1.053 z m 6.6598,7.6141 5.1319,-3.655 3.7402,5.2515 -0.8754,0.6233 -2.8899,-4.0578 -1.1437,0.8146 1.6858,2.367 -0.8752,0.6235 -1.6858,-2.3672 -1.2731,0.9066 2.9254,4.1078 -0.9648,0.6871 z m 11.742,9.3474 -1.5036,-2.9317 -1.4886,0.7636 1.5036,2.9314 c 0.1163,0.2264 0.2277,0.3636 0.3356,0.4135 0.108,0.05 0.2469,0.0311 0.4137,-0.0543 l 0.5993,-0.3075 c 0.1629,-0.0835 0.2557,-0.1835 0.2799,-0.3013 0.0225,-0.1168 -0.0238,-0.2875 -0.1399,-0.5137 z m -6.8006,-1.8341 5.6062,-2.8756 2.4576,4.7912 c 0.2294,0.4473 0.3106,0.8152 0.2407,1.1026 -0.0671,0.2883 -0.2912,0.5291 -0.6733,0.725 l -1.253,0.6428 c -0.3804,0.195102 -0.7066,0.236602 -0.9818,0.124 -0.2742,-0.1111 -0.5255,-0.3916 -0.7549,-0.8388 l -1.8,-3.5092 -2.1839,1.1201 z m 3.8692,7.967202 5.9671,-2.0223 2.0694,6.106 -1.0177,0.3449 -1.599,-4.7182 -1.3298,0.4506 0.9327,2.7524 -1.0177,0.3449 -0.9328,-2.7524 -1.4802,0.5018 1.6186,4.776 -1.1218,0.3801 z m 2.839,8.5364 6.2021,-1.109 0.1763,0.9857 -2.8751,5.0209 c -0.0937,0.1697 -0.1846,0.3203 -0.2723,0.4539 -0.0878,0.1335 -0.1797,0.2555 -0.2771,0.3698 0.3446,-0.0842 0.5883,-0.1442 0.731,-0.1781 0.1446,-0.0342 0.2542,-0.0578 0.3323,-0.0719 l 3.2575,-0.5823 0.2321,1.298 -6.2023,1.109 -0.1762,-0.9855 3.0177,-5.2408 c 0.0789,-0.1257 0.1477,-0.2372 0.2133,-0.3338 0.0634,-0.096 0.1299,-0.1866 0.1995,-0.2714 -0.1891,0.0524 -0.3666,0.1008 -0.5349,0.1412 -0.1686,0.0404 -0.3161,0.0709 -0.4404,0.0932 l -3.3514,0.5993 z m 2.9663,11.7022 0.048,1.8962 c 0.0258,1.009 0.2003,1.721 0.5264,2.1344 0.3239,0.4129 0.8481,0.6114 1.5722,0.5931 0.645,-0.0163 1.1288,-0.2037 1.4516,-0.5619 0.3228,-0.3584 0.4764,-0.8794 0.4591,-1.5629 l -0.066,-2.6001 z m -1.2212,-1.4349 6.2987,-0.1595 0.1027,4.0527 c 0.0293,1.1574 -0.2189,2.0534 -0.7422,2.6876 -0.5255,0.6362 -1.2845,0.9668 -2.2773,0.992 -0.5879,0.015 -1.1201,-0.0938 -1.5982,-0.324 -0.476,-0.2302 -0.8548,-0.5625 -1.1366,-0.9969 -0.178,-0.2704 -0.3106,-0.6071 -0.3983,-1.0121 -0.0876,-0.4068 -0.1394,-0.9266 -0.1556,-1.5634 z m 0.0484,10.1191 6.2823,0.4783 -0.4895,6.4287 -1.0715,-0.0818 0.3784,-4.9673 -1.4001,-0.1067 -0.2207,2.8977 -1.0715,-0.0815 0.2207,-2.8977 -1.5584,-0.1188 -0.383,5.0285 -1.181,-0.0899 z m 6.8267,2.014 1.9844,1.2757 -0.0985,1.2945 -2.1548,0.9605 0.0593,-0.7791 1.3291,-0.8907 -1.178,-1.0939 z m -7.878,6.9041 6.1386,1.419 -0.2254,0.9756 -4.6178,3.486 c -0.1528,0.1193 -0.2956,0.222 -0.4288,0.3102 -0.1334,0.0885 -0.2656,0.1643 -0.4003,0.2312 0.35,0.0581 0.5976,0.0987 0.7422,0.1236 0.1465,0.0256 0.2567,0.0469 0.3338,0.0646 l 3.2242,0.7455 -0.2971,1.2847 -6.1386,-1.4191 0.2254,-0.9754 4.8354,-3.6321 c 0.1218,-0.0846 0.2291,-0.1601 0.327,-0.223 0.0963,-0.0634 0.1931,-0.1204 0.2904,-0.1711 -0.1945,-0.0261 -0.3767,-0.0514 -0.5474,-0.0806 -0.1709,-0.0289 -0.3184,-0.0589 -0.4415,-0.0874 l -3.3172,-0.7666 z m 0.1305,16.8482 1.4532,-3.6797 -3.7137,-1.4663 -1.453,3.6797 1.2605,0.4978 -0.822,1.2506 -0.6927,-0.2735 c -0.5358,-0.2115 -0.8614,-0.4562 -0.9744,-0.7349 -0.1159,-0.2777 -0.0614,-0.698 0.1619,-1.264 l 1.3829,-3.5018 c 0.225,-0.5699 0.4733,-0.9159 0.7467,-1.0377 0.2714,-0.1223 0.6763,-0.0785 1.2121,0.133 l 3.091,1.2207 c 0.5299,0.2092 0.8556,0.4537 0.9722,0.7294 0.1164,0.2756 0.0633,0.6988 -0.1618,1.2685 l -1.3826,3.502 c -0.2235,0.5657 -0.473,0.9093 -0.7472,1.0328 -0.275,0.1258 -0.6799,0.0817 -1.2098,-0.1275 l -0.5566,-0.2197 0.3205,-1.4488 z m -6.7465,1.9103 5.6061,2.8757 -0.6689,1.3037 -5.606,-2.8756 z m -0.9739,6.7328 -1.6031,2.251 2.8785,0.3787 z m -0.4125,-3.7565 3.0627,6.5607 -0.8207,1.1521 -7.2286,-0.7112 0.955,-1.3409 1.5631,0.1837 2.3187,-3.2556 -0.6978,-1.3986 z m -89.4117,26.7842 -3.3805,-1.7264 -1.5054,2.9477 3.3806,1.7264 0.5295,-1.0366 -1.767,-0.9025 0.4051,-0.7931 2.8218,1.441 -0.8196,1.6044 c -0.2171,0.4254 -0.445,0.6746 -0.6824,0.7466 -0.2368,0.074 -0.5825,-0.006 -1.0347,-0.2368 l -3.2093,-1.6388 c -0.4523,-0.2309 -0.718,-0.4634 -0.7969,-0.6987 -0.0794,-0.2336 -0.0108,-0.5644 0.2062,-0.9896 l 1.2523,-2.4522 c 0.2155,-0.4221 0.4425,-0.6698 0.6799,-0.7456 0.2369,-0.0741 0.5818,0.003 1.034,0.2344 l 3.2092,1.6389 c 0.4463,0.2279 0.7123,0.4602 0.7969,0.6948 0.0827,0.2355 0.0233,0.552 -0.18,0.95 l -0.0543,0.1066 -1.1523,-0.3476 z m 4.1286,2.2867 c 0.1751,-0.4404 0.3778,-0.7083 0.6067,-0.8044 0.2288,-0.0958 0.5794,-0.0508 1.0513,0.1368 l 3.5724,1.4214 c 0.4734,0.1882 0.7607,0.3969 0.8611,0.624 0.102,0.2276 0.0654,0.5616 -0.1097,1.002 l -1.0185,2.5598 c -0.1765,0.4437 -0.38,0.7133 -0.6098,0.807 -0.2288,0.0959 -0.5804,0.0486 -1.0537,-0.1398 l -3.5725,-1.4212 c -0.4718,-0.1877 -0.7582,-0.3942 -0.8587,-0.6212 -0.1009,-0.2252 -0.0636,-0.5608 0.1129,-1.0046 z m 0.0165,3.2439 3.7246,1.4818 1.2235,-3.0754 -3.7245,-1.4817 z m 8.4322,3.7526 1.1732,-5.0897 1.1835,0.2729 -1.1732,5.0896 z m 6.8692,-0.6256 2.2737,0.2803 -0.86,-2.2476 z m -2.5759,1.7836 3.5742,-4.822 1.1637,0.1435 2.3347,5.5504 -1.3545,-0.1671 -0.483,-1.2121 -3.2884,-0.4053 -0.7445,1.0606 z m 2.7956,-5.4689 1.133,-1.5942 1.0685,0.1317 0.7119,1.8217 -0.6428,-0.0793 -0.6863,-1.1349 -0.9513,0.9331 z m 7.3811,6.4784 0.1509,-5.2208 0.8298,0.0241 3.587,3.1837 c 0.1221,0.1046 0.2288,0.2041 0.3224,0.2978 0.0934,0.094 0.1768,0.1891 0.2533,0.2876 -0.01,-0.294 -0.0176,-0.5017 -0.021,-0.6233 -0.003,-0.1233 -0.004,-0.2161 -0.002,-0.282 l 0.0793,-2.7419 1.0928,0.0316 -0.1509,5.2208 -0.8299,-0.024 -3.7413,-3.337 c -0.0888,-0.0851 -0.1677,-0.1598 -0.2348,-0.2294 -0.0672,-0.0678 -0.1294,-0.1372 -0.1863,-0.2079 0.0105,0.1624 0.0196,0.3144 0.0238,0.4579 0.004,0.1437 0.004,0.2685 0.001,0.3731 l -0.0815,2.8213 z m 10.2845,-0.1395 -0.3958,-5.2082 1.2111,-0.092 0.3958,5.2082 z m 6.288,-2.9353 2.254,-0.4104 -1.4912,-1.8889 z m -1.9267,2.4706 1.9736,-5.6684 1.1536,-0.2102 3.8834,4.6017 -1.3426,0.2444 -0.8224,-1.0127 -3.2598,0.5935 -0.3941,1.2346 z m 12.2451,-5.3126 -0.3333,-0.9877 2.2346,-0.7544 0.3333,0.9879 z m 11.6677,-7.7058 -3.2801,1.9107 1.666,2.8602 3.2801,-1.9107 -0.5859,-1.0059 -1.7144,0.9987 -0.4484,-0.7697 2.7379,-1.5947 0.9068,1.5568 c 0.2403,0.4125 0.3268,0.7391 0.259,0.9777 -0.0658,0.2392 -0.3198,0.4869 -0.7586,0.7424 l -3.1136,1.8139 c -0.4389,0.2555 -0.7783,0.3535 -1.0187,0.2927 -0.2396,-0.0597 -0.4806,-0.296 -0.7211,-0.7087 l -1.3859,-2.379 c -0.2385,-0.4097 -0.3243,-0.7344 -0.2597,-0.9751 0.0657,-0.2393 0.3175,-0.4874 0.7563,-0.7432 l 3.1138,-1.8136 c 0.433,-0.2523 0.7721,-0.3505 1.0153,-0.295 0.2428,0.0577 0.4769,0.2788 0.702,0.6652 l 0.0602,0.1033 -0.9154,0.7814 z m 4.1055,-2.0334 c -0.2942,-0.3716 -0.4251,-0.681 -0.3943,-0.9272 0.0311,-0.2462 0.2453,-0.5275 0.6433,-0.8426 l 3.0146,-2.3865 c 0.3996,-0.3161 0.7239,-0.4611 0.9707,-0.4349 0.2479,0.0254 0.5192,0.2238 0.8134,0.5953 l 1.7099,2.1601 c 0.2965,0.3745 0.4283,0.6855 0.395,0.9313 -0.0313,0.2462 -0.2476,0.5272 -0.6471,0.8435 l -3.0146,2.3863 c -0.3982,0.3152 -0.7201,0.4602 -0.9669,0.4341 -0.2456,-0.025 -0.5177,-0.2248 -0.8142,-0.5993 z m 2.8192,1.6047 3.143,-2.4881 -2.0544,-2.5951 -3.1429,2.488 z" />
      <path
         inkscape:connector-curvature="0"
         id="path827"
         style="fill:#000200;fill-rule:evenodd"
         d="m -134.17039,92.137508 c -3.1254,8.057902 -10.9522,13.771402 -20.1143,13.771402 -11.9117,0 -21.5679,-9.656202 -21.5679,-21.567902 0,-6.3633 2.7563,-12.0823 7.1394,-16.03 l 7.5777,3.0618 c -4.4751,2.3688 -7.5765,6.9853 -7.8004,12.3461 h -5.2214 v 1.2982 h 5.2238 c 0.3482,7.668 6.5846,13.8014 14.2943,13.9843 v 5.528102 h 1.2983 v -5.554602 c 7.1476,-0.4541 12.9042,-6.0281 13.6409,-13.0953 z m -20.7824,-13.8579 h 1.9255 v -3.1522 l -1.9255,-0.915 z m 0,19.4857 h 1.9255 v -7.3085 h -1.9255 z m 14.3598,-12.4345 v -0.5685 l -1.0019,-1.3571 h -6.3065 v 1.9256 z m -19.4857,0 v -1.9256 h -7.3084 v 1.9256 z" />
      <path
         inkscape:connector-curvature="0"
         id="path829"
         style="fill:#000200;fill-rule:evenodd"
         d="m -165.39049,111.49511 -1.5584,1.3878 h 8.263 l 1.872,1.291 h 2.4145 v -1.4588 h 3.2432 v 1.4588 h 5.1797 v -2.6995 h -0.6088 v -1.7318 h 4.7236 v 1.7318 h -0.6088 v 2.6995 h 5.2072 v -1.4588 h 2.8076 v 1.4588 h 3.011 l 2.0011,-1.1618 h 5.3858 c 0.5753,2.2348 1.026,4.519 1.3541,6.8426 h -6.8044 l -1.291,-0.8392 h -3.6566 v 1.9472 h 11.9006 c 0.3137,2.5395 0.4762,5.1261 0.4762,7.7504 0,2.2904 -0.1259,4.5511 -0.3649,6.7781 l -10.1427,0.3943 -8.626,3.129 v 5.1587 l -15.7293,2.1142 v -4.5668 l -8.0339,2.4526 -19.0474,30.1799 c -0.1772,0.281 -0.1852,0.3163 -0.4596,0.1282 l -39.4004,-26.99 -13.1529,16.7398 c -4.6382,-6.7543 -7.9912,-14.4568 -9.7056,-22.7577 l 0.1593,-0.0943 17.1223,-24.8254 7.8645,-2.6511 1.9718,-1.9031 c 0.2963,-0.2858 0.3646,-0.2845 0.6176,0.0341 l 0.4408,0.5551 h 2.1719 c 0.7612,-2.6403 1.8962,-5.1365 3.3223,-7.5209 l 8.0146,3.2202 c -0.6887,2.8283 -0.2336,5.3617 2.2541,7.3705 -1.2333,-2.7624 -1.4547,-5.3804 -0.5366,-7.8357 1.4472,-3.3682 3.867,-4.6382 7.3347,-3.2201 0.9796,0.4005 1.7638,1.0749 2.3972,1.8605 l 1.2523,-1.8247 c -0.5845,-0.7136 -1.2624,-1.3158 -2.0721,-1.719 0.0194,-0.0686 0.0295,-0.141 0.0295,-0.2157 v -0.4121 c 0,-0.4414 -0.3609,-0.8023 -0.8022,-0.8023 v 0 c -0.4409,0 -0.8015,0.3602 -0.8022,0.8009 -0.0719,-0.0185 -0.1443,-0.0349 -0.2173,-0.049 -3.9206,-0.7606 -6.7701,1.0965 -8.6585,4.9374 l -8.6945,-3.864 3.8768,-7.886402 c 2.8223,-5.7411 10.0787,-9.1493 16.1501,-8.2156 l 0.01,0.0015 0.7771,-1.3598 6.5746,2.0797 -0.4678,1.2776 c 5.3328,2.5028 8.842,7.1299 9.3371,14.832502 3.9816,1.7818 7.8725,3.7094 11.4693,6.1051 0.6144,0.4091 0.9537,0.9017 0.4549,1.3458 z m 38.71,40.8467 c -2.9485,7.2566 -7.2142,13.8379 -12.5009,19.4504 l -31.6423,-15.1786 5.1586,-8.5383 z m -16.2789,23.1401 c -5.8142,5.2225 -12.6079,9.3771 -20.0719,12.1607 l -19.5328,-12.0845 10.4951,-17.0767 z m -55.7841,14.6251 c -9.1492,-2.0248 -17.5497,-6.0356 -24.7249,-11.5566 l 14.1845,-19.7921 10.6128,7.2865 z m -25.9348,-12.5113 c -4.4566,-3.6056 -8.4138,-7.8043 -11.7433,-12.4797 l 12.9067,-16.2484 12.8055,8.782 z m 82.2078,-58.5802 v 1.9472 h 5.2072 v -1.9472 z m -3.506,1.9472 v -1.9472 h -5.1797 v 1.9472 z m -8.4229,0 v -1.9472 h -3.2537 l -1.3556,1.0974 h -12.7815 v -5.487 c -2.2655,-0.0754 -4.4976,-0.6357 -6.7963,-1.342 l -11.6122,-3.5683 c 0.0325,0.3205 0.1627,0.6511 0.5072,1.0032 l 8.4594,2.5445 -0.8592,1.7513 1.9497,4.7585 -2.0818,1.9827 h -1.0905 v 1.2228 h 11.4995 v -2.0159 z m -20.4299,19.4576 -11.5879,11.9943 -5.4889,-8.1997 2.7783,-2.304 z" />
    </g>
  </g>
</svg>
